<svg xmlns="http://www.w3.org/2000/svg" version="1.1" xmlns:xlink="http://www.w3.org/1999/xlink" width="512" height="512" x="0" y="0" viewBox="0 0 100 100" style="enable-background:new 0 0 512 512" xml:space="preserve"><g><path d="M97.5 75.328c0 8.75-7.09 15.84-15.83 15.84-8.75 0-15.83-7.09-15.84-15.84 0-6.9 4.47-13.01 11.06-15.1v-30.57a6.587 6.587 0 0 0-4.06-5.99c-3.36-1.4-7.21.19-8.61 3.55l-19.629 49.08a16.083 16.083 0 0 1-14.86 10.06c-8.88.03-16.11-7.14-16.14-16.03v-30.56a15.83 15.83 0 0 1-10.36-10.35c-2.62-8.34 2.02-17.23 10.36-19.85 8.34-2.63 17.23 2.01 19.85 10.35 2.62 8.34-2.01 17.23-10.35 19.85v30.58a6.574 6.574 0 0 0 4.05 5.98c3.36 1.4 7.21-.19 8.61-3.54l19.67-49.09a16.095 16.095 0 0 1 14.85-10.06c8.89-.03 16.12 7.15 16.15 16.03v30.56a15.833 15.833 0 0 1 11.079 15.1z" fill="#fcfcfc" opacity="1" data-original="#000000"></path></g></svg>