<svg width="100" height="100" viewBox="0 0 100 100" fill="none" xmlns="http://www.w3.org/2000/svg">
<path d="M85.26 59.77V40.34C89.47 39.3101 92.5601 35.61 92.5601 31.08C92.5601 25.84 88.3401 21.62 83.1 21.62C80.4299 21.62 77.96 22.75 76.21 24.6L59.05 14.63C59.25 13.8101 59.46 12.88 59.46 11.96C59.46 6.71997 55.24 2.5 50 2.5C44.76 2.5 40.54 6.71997 40.54 11.96C40.54 12.88 40.65 13.8101 40.95 14.63L23.79 24.6C22.04 22.75 19.6799 21.62 16.9 21.62C11.6599 21.62 7.43994 25.84 7.43994 31.08C7.43994 35.5 10.4199 39.2 14.54 40.23V59.77C10.4199 60.8 7.43994 64.5 7.43994 68.9199C7.43994 74.1599 11.6599 78.38 16.9 78.38C19.5701 78.38 21.9399 77.25 23.6799 75.5L40.95 85.47C40.75 86.29 40.54 87.12 40.54 88.04C40.54 93.28 44.76 97.5 50 97.5C55.24 97.5 59.46 93.28 59.46 88.04C59.46 87.12 59.35 86.29 59.05 85.47L76.3201 75.5C78.0601 77.25 80.4299 78.38 83.1 78.38C88.3401 78.38 92.5601 74.1599 92.5601 68.9199C92.5601 64.5 89.47 60.6899 85.26 59.77ZM80.9399 59.6599C76.8301 60.6899 73.64 64.39 73.64 68.8101C73.64 69.84 73.75 70.77 74.05 71.6899L56.99 81.6699C55.24 79.8201 52.78 78.58 50 78.58C47.22 78.58 44.76 79.8201 43.01 81.6699L25.8401 71.8C26.15 70.87 26.25 69.95 26.25 68.9199C26.25 64.39 23.0701 60.59 18.85 59.6599V40.34C23.0701 39.4099 26.36 35.61 26.36 31.08C26.36 30.1599 26.25 29.23 25.95 28.4099L43.11 18.4399C44.86 20.29 47.22 21.4199 50 21.4199C52.6699 21.4199 55.14 20.29 56.89 18.4399L74.05 28.4099C73.85 29.23 73.64 30.1599 73.64 31.08C73.64 35.5 76.73 39.3101 80.9399 40.23V59.6599Z" fill="url(#paint0_linear_35_10)"/>
<defs>
<linearGradient id="paint0_linear_35_10" x1="-0.0510028" y1="-4.851" x2="91.966" y2="95.99" gradientUnits="userSpaceOnUse">
<stop stop-color="#1b1b1b"/>
<stop offset="1" stop-color="#1b1b1b"/>
</linearGradient>
</defs>
</svg>
