<svg xmlns="http://www.w3.org/2000/svg" version="1.1" xmlns:xlink="http://www.w3.org/1999/xlink" width="512" height="512" x="0" y="0" viewBox="0 0 512 512" style="enable-background:new 0 0 512 512" xml:space="preserve" class=""><g><path d="M329.05 109.509c0 29.719-24.178 53.896-53.896 53.896h-4.152L271 241.74h67.525v34.894c0 13.177 10.721 23.897 23.897 23.897s23.896-10.72 23.896-23.897V241.74h123.995c-6.789-39.255-41.067-69.215-82.232-69.215h-6.374v-30h6.374c8.956 0 17.67 1.047 26.033 3.018 4.228-7.683 6.436-16.27 6.436-25.263 0-29.026-23.614-52.64-52.64-52.64h-31.63v-15C376.28 23.615 352.666 0 323.64 0S271 23.614 271 52.64v2.972h4.153c29.719 0 53.897 24.178 53.897 53.897z" fill="#fcfcfc" opacity="1" data-original="#000000" class=""></path><path d="M95.681 236.847c0-29.719 24.178-53.897 53.896-53.897s53.897 24.178 53.897 53.897v4.893H241l.001-108.334h34.152c13.177 0 23.896-10.72 23.896-23.896s-10.72-23.897-23.896-23.897H241l.001-32.987C240.992 23.606 217.382 0 188.36 0c-29.025 0-52.64 23.614-52.64 52.64v15h-31.632c-29.025 0-52.64 23.614-52.64 52.64 0 8.992 2.208 17.579 6.436 25.262a113.406 113.406 0 0 1 26.032-3.018h6.374v30h-6.374c-41.165 0-75.443 29.96-82.232 69.215h93.995v-4.892zM416.319 276.633c0 29.719-24.178 53.897-53.896 53.897s-53.897-24.178-53.897-53.897v-4.894H271l-.001 106.855h-34.152c-13.177 0-23.896 10.72-23.896 23.896s10.72 23.897 23.896 23.897H271l-.001 32.972h.002c0 29.025 23.614 52.64 52.64 52.64s52.64-23.614 52.64-52.64v-15h31.632c29.025 0 52.64-23.614 52.64-52.64 0-8.992-2.208-17.579-6.436-25.263a113.36 113.36 0 0 1-26.033 3.018h-6.374v-30h6.374c40.647 0 74.583-29.209 81.967-67.736h-93.73v4.895z" fill="#fcfcfc" opacity="1" data-original="#000000" class=""></path><path d="M182.95 402.491c0-29.719 24.178-53.896 53.896-53.896h4.152L241 271.74h-67.525v-34.893c0-13.177-10.721-23.897-23.897-23.897s-23.896 10.72-23.896 23.897v34.893H1.95c7.384 38.527 41.32 67.736 81.967 67.736h6.374v30h-6.374c-8.955 0-17.67-1.047-26.032-3.018-4.228 7.683-6.436 16.27-6.436 25.262 0 29.026 23.614 52.64 52.64 52.64h31.632v15c0 29.025 23.614 52.64 52.64 52.64 29.012 0 52.616-23.591 52.64-52.596v-3.015h-4.153c-29.72-.001-53.898-24.179-53.898-53.898z" fill="#fcfcfc" opacity="1" data-original="#000000" class=""></path></g></svg>