<svg xmlns="http://www.w3.org/2000/svg" version="1.1" xmlns:xlink="http://www.w3.org/1999/xlink" width="512" height="512" x="0" y="0" viewBox="0 0 512 512" style="enable-background:new 0 0 512 512" xml:space="preserve" class=""><g><path d="M105.574 48.688A259.52 259.52 0 0 0 74.813 74.98C28.55 121.242 2.195 182.094 0 247.156l105.574 60.953zM1.188 282.484c5.96 58.371 31.574 112.48 73.624 154.536 13.895 13.894 29.11 25.984 45.352 36.171l105.668-61.007zM255.832 0c-42.633 0-83.676 10.355-120.258 29.871V151.93L360.336 22.16C327.886 7.645 292.449 0 255.832 0zM510.477 229.516c-5.961-58.371-31.57-112.48-73.625-154.536A257.824 257.824 0 0 0 391.5 38.81L285.832 99.816zM406.094 203.89v259.423a259.483 259.483 0 0 0 30.758-26.293c46.261-46.262 72.62-107.114 74.812-172.176zM135.574 186.566v138.868l120.258 69.43 120.262-69.43V186.566l-120.262-69.43zM255.832 512c42.637 0 83.68-10.355 120.262-29.871V360.07L151.328 489.84c32.45 14.515 67.89 22.16 104.504 22.16zm0 0" fill="#fcfcfc" opacity="1" data-original="#000000" class=""></path></g></svg>