<svg xmlns="http://www.w3.org/2000/svg" version="1.1" xmlns:xlink="http://www.w3.org/1999/xlink" width="512" height="512" x="0" y="0" viewBox="0 0 512 512" style="enable-background:new 0 0 512 512" xml:space="preserve" fill-rule="evenodd" class=""><g><path d="M51 26h12c14 0 26 12 26 26v12c0 14-12 26-26 26H51c-14 0-26-12-26-26V52c0-14 12-26 26-26zm400 0h12c14 0 26 12 26 26v12c0 14-12 26-26 26h-12c-14 0-26-12-26-26V52c0-14 12-26 26-26zm0 400h12c14 0 26 12 26 26v12c0 14-12 26-26 26h-12c-14 0-26-12-26-26v-12c0-14 12-26 26-26zm0-200h12c14 0 26 12 26 26v12c0 14-12 26-26 26h-12c-14 0-26-12-26-26v-12c0-14 12-26 26-26zM251 26h12c14 0 26 12 26 26v12c0 14-12 26-26 26h-12c-14 0-26-12-26-26V52c0-14 12-26 26-26zm0 400h12c14 0 26 12 26 26v12c0 14-12 26-26 26h-12c-14 0-26-12-26-26v-12c0-14 12-26 26-26zm0-200h12c14 0 26 12 26 26v12c0 14-12 26-26 26h-12c-14 0-26-12-26-26v-12c0-14 12-26 26-26zM51 426h12c14 0 26 12 26 26v12c0 14-12 26-26 26H51c-14 0-26-12-26-26v-12c0-14 12-26 26-26zm0-200h12c14 0 26 12 26 26v12c0 14-12 26-26 26H51c-14 0-26-12-26-26v-12c0-14 12-26 26-26z" fill="#f8f8f8" opacity="1" data-original="#000000"></path></g></svg>