<svg xmlns="http://www.w3.org/2000/svg" version="1.1" xmlns:xlink="http://www.w3.org/1999/xlink" width="512" height="512" x="0" y="0" viewBox="0 0 512 512" style="enable-background:new 0 0 512 512" xml:space="preserve" class=""><g><linearGradient id="a" x1="0" x2="512" y1="258" y2="258" gradientTransform="matrix(1 0 0 -1 0 514)" gradientUnits="userSpaceOnUse"><stop stop-opacity="1" stop-color="#e1f6ff" offset="0"></stop><stop stop-opacity="1" stop-color="#ffffff" offset="1"></stop></linearGradient><path d="M137.996 217.213c-66.402 0-100.73-29.446-131.017-55.426-8.384-7.191-9.351-19.818-2.159-28.202 7.191-8.385 19.818-9.351 28.202-2.159 28.642 24.569 53.378 45.787 104.974 45.787 51.598 0 76.336-21.219 104.98-45.787C273.265 105.446 307.595 76 373.998 76c66.401 0 100.731 29.444 131.02 55.424 8.384 7.19 9.353 19.818 2.161 28.202-7.191 8.385-19.816 9.354-28.201 2.161C450.333 137.218 425.595 116 373.998 116c-51.599 0-76.336 21.219-104.98 45.787-30.289 25.98-64.619 55.426-131.022 55.426zm131.022 53.968c28.644-24.568 53.382-45.787 104.98-45.787 51.599 0 76.337 21.219 104.98 45.787 8.385 7.191 21.011 6.225 28.202-2.159 7.191-8.385 6.225-21.011-2.16-28.202-30.289-25.979-64.619-55.426-131.022-55.426S273.265 214.84 242.976 240.82c-28.644 24.568-53.382 45.787-104.98 45.787-51.597 0-76.332-21.218-104.974-45.787-8.384-7.191-21.01-6.226-28.202 2.159-7.192 8.384-6.225 21.011 2.159 28.202 30.288 25.979 64.616 55.426 131.017 55.426 66.403-.001 100.733-29.447 131.022-55.426zm0 109.393c28.644-24.568 53.382-45.787 104.98-45.787 51.599 0 76.337 21.219 104.98 45.787 8.385 7.191 21.011 6.225 28.202-2.159 7.191-8.385 6.225-21.011-2.16-28.202-30.289-25.979-64.619-55.426-131.022-55.426s-100.733 29.446-131.022 55.426C214.332 374.781 189.594 396 137.996 396c-51.594 0-76.331-21.218-104.973-45.785l-.002-.002c-8.384-7.189-21.009-6.223-28.201 2.16-7.191 8.384-6.224 21.011 2.16 28.202C37.268 406.555 71.597 436 137.996 436c66.403 0 100.733-29.446 131.022-55.426z" style="fill:url(#a);" fill=""></path></g></svg>